<svg width="82" height="82" viewBox="0 0 82 82" fill="none" xmlns="http://www.w3.org/2000/svg">
<path d="M67.7396 24.1909H1.63622C0.732373 24.1909 0 24.8593 0 25.6836V80.5073C0 81.3317 0.732373 82 1.63622 82H67.7396C68.6435 82 69.3759 81.3317 69.3759 80.5073V25.6836C69.3759 24.8593 68.6435 24.1909 67.7396 24.1909ZM66.1034 79.0146H3.27245V27.1764H66.1034V79.0146Z" fill="#F9C33D"/>
<path d="M7.39538 76.7466H61.9807C62.8845 76.7466 63.6169 76.0783 63.6169 75.2539V30.938C63.6169 30.1137 62.8845 29.4453 61.9807 29.4453H7.39538C6.49153 29.4453 5.75916 30.1137 5.75916 30.938V75.2537C5.75916 76.0783 6.49153 76.7466 7.39538 76.7466ZM9.0316 32.4308H60.3444V73.761H9.0316V32.4308Z" fill="#F9C33D"/>
<path d="M52.716 44.75H16.6598C15.7559 44.75 15.0236 45.4183 15.0236 46.2427V66.3447C15.0236 67.1691 15.7559 67.8374 16.6598 67.8374H52.716C53.6199 67.8374 54.3522 67.1691 54.3522 66.3447V46.2427C54.3522 45.4183 53.6199 44.75 52.716 44.75ZM51.0798 64.852H18.296V47.7354H51.0798V64.852Z" fill="#F9C33D"/>
<path d="M57.4366 35.1558C56.5327 35.1558 55.8003 35.8241 55.8003 36.6485V38.5823H15.0782V36.6485C15.0782 35.8241 14.3459 35.1558 13.442 35.1558C12.5382 35.1558 11.8058 35.8241 11.8058 36.6485V40.075C11.8058 40.8994 12.5382 41.5677 13.442 41.5677H57.4366C58.3404 41.5677 59.0728 40.8994 59.0728 40.075V36.6485C59.0728 35.8241 58.3402 35.1558 57.4366 35.1558Z" fill="#F9C33D"/>
<path d="M1.99133 7.09719H3.10941V18.9396C3.10941 21.2267 5.14902 23.0874 7.65593 23.0874H25.873C28.3799 23.0874 30.4195 21.2267 30.4195 18.9396V7.09719H31.5376C32.4414 7.09719 33.1738 6.42885 33.1738 5.60447C33.1738 4.78009 32.4414 4.11175 31.5376 4.11175H17.8998V1.49272C17.8998 0.668341 17.1674 0 16.2636 0C15.3597 0 14.6273 0.668341 14.6273 1.49272V4.11175H1.99133C1.08748 4.11175 0.355103 4.78009 0.355103 5.60447C0.355103 6.42885 1.08769 7.09719 1.99133 7.09719ZM27.1471 7.09719V18.9396C27.1471 19.5805 26.5755 20.102 25.873 20.102H7.65593C6.95344 20.102 6.38186 19.5805 6.38186 18.9396V7.09719H27.1471Z" fill="#F9C33D"/>
<path d="M80.3639 14.0693H40.3013C39.8023 14.0693 39.3309 14.2769 39.0204 14.6332C38.71 14.9896 38.5948 15.4556 38.7071 15.899L40.2395 21.932C40.4114 22.6085 41.072 23.0878 41.8336 23.0878H62.8061C63.5673 23.0878 64.2283 22.6087 64.4002 21.932L65.6394 17.0548H80.3639C81.2677 17.0548 82.0001 16.3864 82.0001 15.5621C82.0001 14.7377 81.2675 14.0693 80.3639 14.0693ZM61.5056 20.1023H43.1341L42.3598 17.0548H62.2799L61.5056 20.1023Z" fill="#F9C33D"/>
<path d="M24.0642 54.7022H45.312C46.2158 54.7022 46.9482 54.0339 46.9482 53.2095C46.9482 52.3851 46.2158 51.7168 45.312 51.7168H24.0642C23.1604 51.7168 22.428 52.3851 22.428 53.2095C22.428 54.0339 23.1606 54.7022 24.0642 54.7022Z" fill="#F9C33D"/>
<path d="M24.0642 60.8707H45.312C46.2158 60.8707 46.9482 60.2023 46.9482 59.378C46.9482 58.5536 46.2158 57.8853 45.312 57.8853H24.0642C23.1604 57.8853 22.428 58.5536 22.428 59.378C22.428 60.2023 23.1606 60.8707 24.0642 60.8707Z" fill="#F9C33D"/>
</svg>