<svg width="82" height="82" viewBox="0 0 82 82" fill="none" xmlns="http://www.w3.org/2000/svg">
<path d="M16.0156 31.3906C16.0156 32.2752 15.2987 32.9922 14.4141 32.9922C13.5294 32.9922 12.8125 32.2752 12.8125 31.3906C12.8125 30.506 13.5294 29.7891 14.4141 29.7891C15.2987 29.7891 16.0156 30.506 16.0156 31.3906Z" fill="#F9C33D"/>
<path d="M80.3984 39.3984H71.3171C75.946 36.1271 78.7969 30.8163 78.7969 24.9844C78.7969 24.0998 78.0799 23.3828 77.1953 23.3828H45.8047V11.2109C45.8047 10.327 46.5223 9.60938 47.4062 9.60938C48.2896 9.60938 49.0078 10.3276 49.0078 11.2109V14.4141C49.0078 15.2987 49.7248 16.0156 50.6094 16.0156H57.0156C57.9002 16.0156 58.6172 15.2987 58.6172 14.4141V11.2109C58.6172 5.03992 53.6261 0 47.4062 0C41.2246 0 36.1953 5.02928 36.1953 11.2109V23.3828H29.1172L30.4078 15.6384C30.5704 14.6643 29.8185 13.7734 28.8281 13.7734H19.2188C18.2309 13.7734 17.4758 14.6612 17.6391 15.6384L18.9297 23.3828H4.80469C3.92007 23.3828 3.20312 24.0998 3.20312 24.9844C3.20312 30.9364 6.17039 36.2072 10.7029 39.3984H1.60156C0.716949 39.3984 0 40.1154 0 41V50.6094C0 51.494 0.716949 52.2109 1.60156 52.2109H3.20312V80.3984C3.20312 81.2831 3.92007 82 4.80469 82H77.1953C78.0799 82 78.7969 81.2831 78.7969 80.3984V52.2109H80.3984C81.2831 52.2109 82 51.494 82 50.6094V41C82 40.1154 81.2831 39.3984 80.3984 39.3984ZM39.3984 11.2109C39.3984 6.79538 42.9907 3.20312 47.4062 3.20312C51.8256 3.20312 55.4141 6.77849 55.4141 11.2109V12.8125H52.2109V11.2109C52.2109 8.56148 50.0557 6.40625 47.4062 6.40625C44.7518 6.40625 42.6016 8.55647 42.6016 11.2109V23.3828H39.3984V11.2109ZM26.9375 16.9766L25.8696 23.3828H22.1766L21.1093 16.9766H26.9375ZM6.49446 26.5841H75.5062C75.386 27.6795 75.1408 28.7524 74.7736 29.7891H20.8203C19.9357 29.7891 19.2188 30.506 19.2188 31.3906C19.2188 32.2752 19.9357 32.9903 20.8203 32.9903H73.1658C70.5601 36.8847 66.1658 39.3984 61.1797 39.3984H20.8203C13.4137 39.3984 7.29399 33.7811 6.49446 26.5841ZM6.40625 52.2109H39.3984V78.7969H6.40625V52.2109ZM75.5938 78.7969H42.6016V52.2109H75.5938V78.7969ZM78.7969 49.0078C70.9436 49.0078 10.3351 49.0078 3.20312 49.0078V42.6016H78.7969V49.0078Z" fill="#F9C33D"/>
<path d="M47.4062 68.2266C48.2909 68.2266 49.0078 67.5096 49.0078 66.625V60.2188C49.0078 59.3341 48.2909 58.6172 47.4062 58.6172C46.5216 58.6172 45.8047 59.3341 45.8047 60.2188V66.625C45.8047 67.5096 46.5216 68.2266 47.4062 68.2266Z" fill="#F9C33D"/>
<path d="M34.5938 58.6172C33.7091 58.6172 32.9922 59.3341 32.9922 60.2188V66.625C32.9922 67.5096 33.7091 68.2266 34.5938 68.2266C35.4784 68.2266 36.1953 67.5096 36.1953 66.625V60.2188C36.1953 59.3341 35.4784 58.6172 34.5938 58.6172Z" fill="#F9C33D"/>
</svg>