<svg width="82" height="82" viewBox="0 0 82 82" fill="none" xmlns="http://www.w3.org/2000/svg">
<path d="M43.5625 30.7502C43.8554 30.7473 44.1382 30.6431 44.363 30.4553C44.5878 30.2675 44.7407 30.0077 44.7957 29.72C44.8507 29.4323 44.8044 29.1344 44.6648 28.877C44.5251 28.6195 44.3006 28.4183 44.0294 28.3076C43.7583 28.1968 43.4571 28.1833 43.1772 28.2694C42.8972 28.3554 42.6556 28.5357 42.4935 28.7796C42.3313 29.0236 42.2586 29.3161 42.2876 29.6076C42.3167 29.8991 42.4457 30.1715 42.6528 30.3786C42.8985 30.6125 43.2233 30.7452 43.5625 30.7502Z" fill="#F9C33D"/>
<path d="M28.1875 30.7502C28.4804 30.7473 28.7632 30.6431 28.988 30.4553C29.2128 30.2675 29.3657 30.0077 29.4207 29.72C29.4757 29.4323 29.4294 29.1344 29.2898 28.877C29.1501 28.6195 28.9256 28.4183 28.6544 28.3076C28.3833 28.1968 28.0821 28.1833 27.8022 28.2694C27.5222 28.3554 27.2806 28.5357 27.1185 28.7796C26.9563 29.0236 26.8836 29.3161 26.9126 29.6076C26.9417 29.8991 27.0707 30.1715 27.2778 30.3786C27.5235 30.6125 27.8483 30.7452 28.1875 30.7502Z" fill="#F9C33D"/>
<path d="M44.8438 42.2812V39.7187C44.8419 38.2425 44.3311 36.812 43.3976 35.6684C42.464 34.5248 41.1648 33.738 39.7188 33.4406V29.4688H37.1562V34.5937C37.1562 34.9336 37.0213 35.2594 36.781 35.4997C36.5407 35.74 36.2148 35.875 35.875 35.875C35.5352 35.875 35.2093 35.74 34.969 35.4997C34.7287 35.2594 34.5938 34.9336 34.5938 34.5937V29.4688H32.0312V33.4406C30.5852 33.738 29.286 34.5248 28.3524 35.6684C27.4189 36.812 26.9081 38.2425 26.9062 39.7187V42.2812C26.9062 42.6211 27.0412 42.9469 27.2815 43.1872C27.5218 43.4275 27.8477 43.5625 28.1875 43.5625H43.5625C43.9023 43.5625 44.2282 43.4275 44.4685 43.1872C44.7088 42.9469 44.8438 42.6211 44.8438 42.2812ZM42.2812 41H29.4688V39.7187C29.4724 38.8762 29.7527 38.0582 30.2666 37.3906C30.7805 36.723 31.4996 36.2427 32.3131 36.0236C32.5973 36.7361 33.0886 37.3469 33.7236 37.7773C34.3585 38.2076 35.108 38.4376 35.875 38.4376C36.642 38.4376 37.3915 38.2076 38.0264 37.7773C38.6614 37.3469 39.1527 36.7361 39.4369 36.0236C40.2504 36.2427 40.9695 36.723 41.4834 37.3906C41.9973 38.0582 42.2776 38.8762 42.2812 39.7187V41Z" fill="#F9C33D"/>
<path d="M78.3382 57.6691L74.9019 57.1784C74.6695 56.4561 74.379 55.7538 74.0332 55.0784L76.1139 52.3032C76.2989 52.0565 76.3887 51.7513 76.3668 51.4437C76.3449 51.1361 76.2128 50.8467 75.9948 50.6286L72.3714 47.0052C72.1534 46.7872 71.864 46.6551 71.5563 46.6332C71.2487 46.6113 70.9436 46.7011 70.6968 46.8861L67.9216 48.9668C67.2463 48.621 66.544 48.3305 65.8217 48.0981L65.3309 44.6618C65.2872 44.3566 65.1348 44.0775 64.9018 43.8755C64.6688 43.6736 64.3708 43.5625 64.0625 43.5625H58.9375C58.6292 43.5625 58.3312 43.6736 58.0982 43.8755C57.8652 44.0775 57.7128 44.3566 57.6691 44.6618L57.1783 48.0981C56.456 48.3305 55.7537 48.621 55.0784 48.9668L52.3032 46.8861C52.0564 46.7011 51.7513 46.6113 51.4437 46.6332C51.136 46.6551 50.8466 46.7872 50.6286 47.0052L47.0052 50.6286C46.7872 50.8467 46.655 51.1361 46.6332 51.4437C46.6113 51.7513 46.7011 52.0565 46.8861 52.3032L48.9668 55.0784C48.9502 55.113 48.9361 55.1489 48.9181 55.1835L44.895 54.1251L44.8514 50.0969C47.0034 48.8497 48.8732 47.1696 50.3424 45.1626C51.8116 43.1557 52.8484 40.8657 53.3871 38.4375H53.8125C55.1717 38.4375 56.4753 37.8976 57.4364 36.9364C58.3975 35.9753 58.9375 34.6718 58.9375 33.3125C58.9375 31.9533 58.3975 30.6497 57.4364 29.6886C56.4753 28.7275 55.1717 28.1875 53.8125 28.1875C54.7226 28.1895 55.6038 27.8676 56.2983 27.2794C56.9928 26.6912 57.4555 25.8751 57.6034 24.9771C57.7513 24.0791 57.5749 23.1577 57.1057 22.3778C56.6365 21.5979 55.9052 21.0104 55.0425 20.7204C54.8009 16.6768 53.0856 12.8619 50.2213 9.99752C47.3569 7.13314 43.542 5.41789 39.4984 5.17627C39.2458 4.41472 38.7597 3.75208 38.1092 3.28245C37.4587 2.81282 36.6767 2.56006 35.8744 2.56006C35.072 2.56006 34.2901 2.81282 33.6395 3.28245C32.989 3.75208 32.5029 4.41472 32.2503 5.17627C28.2146 5.43876 24.4122 7.16065 21.5527 10.0206C18.6931 12.8806 16.9719 16.6833 16.7101 20.7191C15.8466 21.0084 15.1144 21.5956 14.6444 22.3755C14.1745 23.1554 13.9975 24.0772 14.1451 24.9757C14.2928 25.8743 14.7555 26.6909 15.4504 27.2794C16.1452 27.8679 17.0269 28.1898 17.9375 28.1875C16.5783 28.1875 15.2747 28.7275 14.3136 29.6886C13.3525 30.6497 12.8125 31.9533 12.8125 33.3125C12.8125 34.6718 13.3525 35.9753 14.3136 36.9364C15.2747 37.8976 16.5783 38.4375 17.9375 38.4375H18.3629C18.9014 40.8678 19.9389 43.1597 21.4096 45.1681C22.8802 47.1764 24.752 48.8574 26.9062 50.1046V54.1123L14.9906 57.2501C11.4302 58.182 8.2792 60.2678 6.03046 63.1812C3.78172 66.0946 2.56213 69.6713 2.5625 73.3516V75.5938C2.5625 75.9336 2.69749 76.2595 2.93777 76.4998C3.17805 76.74 3.50394 76.875 3.84375 76.875H47.4062V74.3125H5.125V73.3516C5.12467 70.2374 6.15666 67.2108 8.05951 64.7456C9.96237 62.2803 12.6288 60.5153 15.6415 59.7268L20.5 58.4455V67.9063C20.5 68.2461 20.635 68.572 20.8753 68.8123C21.1155 69.0525 21.4414 69.1875 21.7812 69.1875H48.0174L46.8861 70.6968C46.7011 70.9436 46.6113 71.2488 46.6332 71.5564C46.655 71.864 46.7872 72.1534 47.0052 72.3714L50.6286 75.9948C50.8466 76.2129 51.136 76.345 51.4437 76.3669C51.7513 76.3887 52.0564 76.299 52.3032 76.114L55.0784 74.0332C55.7537 74.379 56.456 74.6695 57.1783 74.9019L57.6691 78.3382C57.7128 78.6434 57.8652 78.9226 58.0982 79.1245C58.3312 79.3264 58.6292 79.4376 58.9375 79.4375H64.0625C64.3708 79.4376 64.6688 79.3264 64.9018 79.1245C65.1348 78.9226 65.2872 78.6434 65.3309 78.3382L65.8217 74.9019C66.544 74.6695 67.2463 74.379 67.9216 74.0332L70.6968 76.114C70.9436 76.299 71.2487 76.3887 71.5563 76.3669C71.864 76.345 72.1534 76.2129 72.3714 75.9948L75.9948 72.3714C76.2128 72.1534 76.3449 71.864 76.3668 71.5564C76.3887 71.2488 76.2989 70.9436 76.1139 70.6968L74.0332 67.9216C74.379 67.2463 74.6695 66.544 74.9019 65.8217L78.3382 65.331C78.6434 65.2872 78.9225 65.1348 79.1245 64.9018C79.3264 64.6688 79.4375 64.3708 79.4375 64.0625V58.9375C79.4375 58.6292 79.3264 58.3312 79.1245 58.0982C78.9225 57.8652 78.6434 57.7129 78.3382 57.6691ZM45.2653 56.867L47.0296 57.3308L44.7131 57.6627C44.9153 57.4105 45.0998 57.1446 45.2653 56.867ZM56.375 33.3125C56.375 33.9921 56.105 34.6439 55.6245 35.1245C55.1439 35.605 54.4921 35.875 53.8125 35.875V30.75C54.4921 30.75 55.1439 31.02 55.6245 31.5006C56.105 31.9811 56.375 32.6329 56.375 33.3125ZM52.4749 20.5H39.7188V7.7503C43.0024 8.04271 46.0789 9.47972 48.4106 11.8102C50.7423 14.1407 52.1808 17.2165 52.4749 20.5ZM34.5938 6.40627C34.5938 6.06646 34.7287 5.74057 34.969 5.50029C35.2093 5.26001 35.5352 5.12502 35.875 5.12502C36.2148 5.12502 36.5407 5.26001 36.781 5.50029C37.0213 5.74057 37.1562 6.06646 37.1562 6.40627V20.5H34.5938V6.40627ZM32.0312 7.74902V20.5H19.2764C19.5808 17.2204 21.0225 14.1505 23.3518 11.8218C25.6812 9.49319 28.7515 8.05243 32.0312 7.74902ZM16.6562 24.3438C16.6562 24.004 16.7912 23.6781 17.0315 23.4378C17.2718 23.1975 17.5977 23.0625 17.9375 23.0625H53.8125C54.1523 23.0625 54.4782 23.1975 54.7185 23.4378C54.9588 23.6781 55.0938 24.004 55.0938 24.3438C55.0938 24.6836 54.9588 25.0095 54.7185 25.2498C54.4782 25.49 54.1523 25.625 53.8125 25.625H17.9375C17.5977 25.625 17.2718 25.49 17.0315 25.2498C16.7912 25.0095 16.6562 24.6836 16.6562 24.3438ZM17.9375 35.875C17.2579 35.875 16.6061 35.605 16.1255 35.1245C15.645 34.6439 15.375 33.9921 15.375 33.3125C15.375 32.6329 15.645 31.9811 16.1255 31.5006C16.6061 31.02 17.2579 30.75 17.9375 30.75V35.875ZM20.5 34.5938V28.1875H51.25V34.5938C51.25 38.6715 49.6301 42.5822 46.7468 45.4655C43.8634 48.3489 39.9527 49.9688 35.875 49.9688C31.7973 49.9688 27.8866 48.3489 25.0032 45.4655C22.1199 42.5822 20.5 38.6715 20.5 34.5938ZM35.875 52.5313C38.0663 52.5279 40.2381 52.1201 42.2812 51.3282V55.0938C42.2833 55.2765 42.3247 55.4566 42.4028 55.6218C42.4808 55.7869 42.5937 55.9333 42.7335 56.0509C41.8776 57.0126 40.8176 57.7709 39.6309 58.2703C38.4443 58.7698 37.161 58.9977 35.875 58.9375C34.589 58.9977 33.3057 58.7698 32.1191 58.2703C30.9324 57.7709 29.8724 57.0126 29.0165 56.0509C29.1563 55.9333 29.2692 55.7869 29.3472 55.6218C29.4253 55.4566 29.4667 55.2765 29.4688 55.0938V51.3282C31.5119 52.1201 33.6837 52.5279 35.875 52.5313ZM23.0625 57.7703L26.4847 56.8734C28.0683 59.6409 31.7302 61.5 35.875 61.5C38.6709 61.554 41.3967 60.6228 43.5753 58.8696C43.5753 58.8927 43.5625 58.9132 43.5625 58.9375V64.0625C43.5625 64.3708 43.6736 64.6688 43.8755 64.9018C44.0774 65.1348 44.3566 65.2872 44.6618 65.331L48.0981 65.8217C48.1852 66.0933 48.289 66.3598 48.3928 66.625H23.0625V57.7703ZM76.875 62.9517L73.7193 63.4027C73.4681 63.4385 73.2331 63.548 73.0442 63.7175C72.8554 63.887 72.7211 64.1087 72.6584 64.3546C72.3892 65.4156 71.9684 66.4323 71.4092 67.3733C71.2796 67.5915 71.2177 67.8433 71.2314 68.0967C71.2451 68.3501 71.3337 68.5938 71.4861 68.7967L73.3977 71.3464L71.3477 73.3964L68.8031 71.4861C68.6002 71.3337 68.3565 71.2451 68.1031 71.2314C67.8496 71.2177 67.5979 71.2796 67.3797 71.4092C66.4387 71.9685 65.422 72.3892 64.361 72.6584C64.1151 72.7211 63.8934 72.8554 63.7239 73.0443C63.5544 73.2331 63.4448 73.4681 63.4091 73.7193L62.9517 76.875H60.0483L59.5973 73.7193C59.5616 73.4681 59.452 73.2331 59.2825 73.0443C59.113 72.8554 58.8913 72.7211 58.6454 72.6584C57.5844 72.3892 56.5677 71.9685 55.6268 71.4092C55.4085 71.2796 55.1568 71.2177 54.9033 71.2314C54.6499 71.2451 54.4063 71.3337 54.2033 71.4861L51.6536 73.3977L49.6036 71.3477L51.5152 68.798C51.6676 68.595 51.7562 68.3514 51.7699 68.098C51.7836 67.8445 51.7217 67.5928 51.5921 67.3745C51.0328 66.4336 50.6121 65.4169 50.3429 64.3559C50.2802 64.11 50.1459 63.8883 49.957 63.7188C49.7682 63.5493 49.5332 63.4397 49.282 63.404L46.125 62.9517V60.0484L49.2807 59.5974C49.5319 59.5616 49.7669 59.452 49.9558 59.2825C50.1446 59.113 50.2789 58.8913 50.3416 58.6454C50.6108 57.5844 51.0316 56.5677 51.5908 55.6268C51.7204 55.4086 51.7823 55.1568 51.7686 54.9034C51.7549 54.6499 51.6663 54.4063 51.5139 54.2033L49.6023 51.6536L51.6523 49.6036L54.202 51.5152C54.405 51.6676 54.6486 51.7562 54.9021 51.7699C55.1555 51.7836 55.4073 51.7217 55.6255 51.5921C56.5664 51.0329 57.5831 50.6121 58.6441 50.3429C58.89 50.2802 59.1117 50.1459 59.2812 49.9571C59.4507 49.7682 59.5603 49.5332 59.5961 49.282L60.0483 46.125H62.9517L63.4027 49.2807C63.4384 49.532 63.548 49.7669 63.7175 49.9558C63.887 50.1446 64.1087 50.2789 64.3546 50.3416C65.4156 50.6108 66.4323 51.0316 67.3733 51.5908C67.5915 51.7204 67.8432 51.7823 68.0967 51.7686C68.3501 51.755 68.5937 51.6663 68.7967 51.514L71.3464 49.6023L73.3964 51.6523L71.4848 54.202C71.3324 54.405 71.2438 54.6487 71.2301 54.9021C71.2164 55.1555 71.2783 55.4073 71.4079 55.6255C71.9672 56.5665 72.3879 57.5831 72.6571 58.6441C72.7198 58.89 72.8541 59.1118 73.043 59.2812C73.2318 59.4507 73.4668 59.5603 73.718 59.5961L76.875 60.0484V62.9517Z" fill="#F9C33D"/>
<path d="M61.5 53.8125C59.9796 53.8125 58.4933 54.2634 57.2291 55.1081C55.9649 55.9528 54.9795 57.1534 54.3977 58.5581C53.8158 59.9628 53.6636 61.5085 53.9602 62.9998C54.2568 64.491 54.989 65.8608 56.0641 66.9359C57.1392 68.011 58.509 68.7432 60.0002 69.0398C61.4915 69.3364 63.0372 69.1842 64.4419 68.6023C65.8466 68.0205 67.0472 67.0351 67.8919 65.7709C68.7366 64.5067 69.1875 63.0204 69.1875 61.5C69.1855 59.4618 68.3749 57.5076 66.9336 56.0664C65.4924 54.6251 63.5382 53.8145 61.5 53.8125ZM61.5 66.625C60.4864 66.625 59.4955 66.3244 58.6527 65.7613C57.8099 65.1981 57.153 64.3977 56.7651 63.4613C56.3772 62.5248 56.2757 61.4943 56.4735 60.5002C56.6712 59.506 57.1593 58.5928 57.8761 57.8761C58.5928 57.1593 59.506 56.6712 60.5002 56.4735C61.4943 56.2757 62.5248 56.3772 63.4613 56.7651C64.3977 57.153 65.1981 57.8099 65.7613 58.6527C66.3244 59.4955 66.625 60.4864 66.625 61.5C66.625 62.8592 66.085 64.1628 65.1239 65.1239C64.1628 66.085 62.8592 66.625 61.5 66.625Z" fill="#F9C33D"/>
</svg>