<svg width="82" height="82" viewBox="0 0 82 82" fill="none" xmlns="http://www.w3.org/2000/svg">
<g clip-path="url(#clip0)">
<path d="M57.2064 17.1979C52.9785 12.9175 47.3393 10.5177 41.3278 10.4395C35.23 10.36 29.465 12.6873 25.0913 16.9915C20.7202 21.2932 18.3028 27.0175 18.2847 33.1103C18.2653 39.7049 21.105 45.976 26.0754 50.3159C29.6739 53.4577 31.7378 57.9258 31.7378 62.5728V74.0459C31.7378 78.432 35.3063 82.0005 39.6925 82.0005H42.3619C46.7475 82.0005 50.316 78.432 50.316 74.0459V62.7198C50.316 57.9402 52.3404 53.4533 55.8707 50.4091C60.89 46.0817 63.7691 39.8012 63.7691 33.1798C63.7691 27.1577 61.4387 21.4815 57.2064 17.1979ZM41.0069 44.7085H39.9446C39.364 44.7085 38.8917 44.2362 38.8917 43.655C38.8917 43.0744 39.364 42.6021 39.9446 42.6021C40.5302 42.6021 41.0069 43.0788 41.0069 43.6644V44.7085ZM41.0269 54.2272C41.9103 54.2272 42.6285 54.9454 42.6285 55.8287V61.2741H39.4253V55.8287C39.4253 54.9454 40.1435 54.2272 41.0269 54.2272ZM47.1128 64.4772V66.8326H34.941V64.4772H47.1128ZM34.941 70.0357H47.1128V72.3912H34.941V70.0357ZM42.3613 78.7974H39.6925C37.6142 78.7974 35.845 77.4561 35.2012 75.5943H46.8526C46.2088 77.4561 44.4396 78.7974 42.3613 78.7974ZM53.7793 47.9836C49.9024 51.3262 47.5382 56.1078 47.1648 61.2741H45.8316V55.8287C45.8316 54.3986 45.2028 53.1136 44.2087 52.2327C44.2087 52.2259 44.21 52.219 44.21 52.2115V46.9476C45.5144 46.0117 46.3652 44.4827 46.3652 42.7585V40.278C46.3652 36.8659 43.5894 34.0894 40.1767 34.0894H37.2901C36.4055 34.0894 35.6886 34.8064 35.6886 35.691C35.6886 36.5756 36.4055 37.2925 37.2901 37.2925H40.1767C41.8233 37.2925 43.1621 38.632 43.1621 40.278V40.8673C42.3795 39.9683 41.2277 39.399 39.9446 39.399C37.5979 39.399 35.6886 41.3083 35.6886 43.6556C35.6886 46.0023 37.5979 47.9116 39.9446 47.9116H41.0069V51.0247C38.3668 51.0353 36.2222 53.1862 36.2222 55.8287V61.2741H34.8965C34.5456 56.176 32.1426 51.3606 28.1825 47.9029C23.9108 44.1743 21.4709 38.7859 21.4878 33.1203C21.5035 27.889 23.5811 22.9717 27.3385 19.2743C31.0978 15.5745 36.047 13.5738 41.2859 13.6426C51.9169 13.7802 60.566 22.545 60.566 33.1798C60.566 38.8691 58.0923 44.2643 53.7793 47.9836Z" fill="#F9C33D"/>
<path d="M41.3503 18.2296H41.3253C40.4426 18.2208 39.7238 18.9284 39.7131 19.8124C39.7031 20.697 40.4194 21.4227 41.304 21.4327H41.3284H41.3478C42.2231 21.4327 42.9306 20.7283 42.9406 19.8499C42.9513 18.9653 42.235 18.2402 41.3503 18.2296Z" fill="#F9C33D"/>
<path d="M48.3954 20.1079C47.6221 19.6775 46.6468 19.9552 46.2163 20.7285C45.7866 21.5011 46.0637 22.4765 46.837 22.9069C50.5637 24.982 52.8785 28.9177 52.8785 33.1788C52.8785 34.0634 53.5954 34.7803 54.48 34.7803C55.3647 34.7803 56.0816 34.0634 56.0816 33.1788C56.0816 27.7566 53.1362 22.7486 48.3954 20.1079Z" fill="#F9C33D"/>
<path d="M41.0269 7.52734C41.9115 7.52734 42.6284 6.81039 42.6284 5.92578V1.60156C42.6284 0.716949 41.9115 0 41.0269 0C40.1423 0 39.4253 0.716949 39.4253 1.60156V5.92578C39.4253 6.81039 40.1423 7.52734 41.0269 7.52734Z" fill="#F9C33D"/>
<path d="M72.6046 31.5776H68.2804C67.3958 31.5776 66.6788 32.2946 66.6788 33.1792C66.6788 34.0638 67.3958 34.7808 68.2804 34.7808H72.6046C73.4892 34.7808 74.2061 34.0638 74.2061 33.1792C74.2061 32.2946 73.4892 31.5776 72.6046 31.5776Z" fill="#F9C33D"/>
<path d="M13.7734 31.5776H9.44922C8.56461 31.5776 7.84766 32.2946 7.84766 33.1792C7.84766 34.0638 8.56461 34.7808 9.44922 34.7808H13.7734C14.6581 34.7808 15.375 34.0638 15.375 33.1792C15.375 32.2946 14.6581 31.5776 13.7734 31.5776Z" fill="#F9C33D"/>
<path d="M61.4305 51.3183C60.8049 50.6927 59.7908 50.6927 59.1652 51.3183C58.5402 51.9433 58.5402 52.9574 59.1652 53.583L62.2232 56.641C62.536 56.9532 62.9458 57.1102 63.3556 57.1102C63.7653 57.1102 64.1751 56.9532 64.4879 56.641C65.1135 56.0154 65.1135 55.0013 64.4879 54.3757L61.4305 51.3183Z" fill="#F9C33D"/>
<path d="M20.6232 15.0405C20.936 15.3533 21.3458 15.5097 21.7556 15.5097C22.1654 15.5097 22.5758 15.3533 22.888 15.0405C23.5136 14.4155 23.5136 13.4014 22.888 12.7757L19.8306 9.71776C19.205 9.09278 18.1909 9.09278 17.5653 9.71776C16.9396 10.3434 16.9403 11.3575 17.5653 11.9831L20.6232 15.0405Z" fill="#F9C33D"/>
<path d="M62.2232 9.71806L59.1658 12.7754C58.5402 13.401 58.5402 14.4151 59.1658 15.0407C59.4786 15.3536 59.8884 15.51 60.2982 15.51C60.708 15.51 61.1177 15.3536 61.4305 15.0407L64.4879 11.9828C65.1135 11.3572 65.1135 10.343 64.4879 9.71743C63.8629 9.09182 62.8488 9.09245 62.2232 9.71806Z" fill="#F9C33D"/>
<path d="M20.6232 51.3183L17.5659 54.3757C16.9403 55.0013 16.9403 56.0154 17.5659 56.641C17.8787 56.9532 18.2885 57.1102 18.6982 57.1102C19.108 57.1102 19.5178 56.9532 19.8306 56.641L22.888 53.583C23.5136 52.9574 23.5136 51.9433 22.888 51.3183C22.263 50.6927 21.2489 50.6927 20.6232 51.3183Z" fill="#F9C33D"/>
</g>
<defs>
<clipPath id="clip0">
<rect width="82" height="82" fill="white"/>
</clipPath>
</defs>
</svg>